<?xml version="1.0" encoding="UTF-8" standalone="no"?>
<svg
   xmlns:dc="http://purl.org/dc/elements/1.1/"
   xmlns:cc="http://creativecommons.org/ns#"
   xmlns:rdf="http://www.w3.org/1999/02/22-rdf-syntax-ns#"
   xmlns:svg="http://www.w3.org/2000/svg"
   xmlns="http://www.w3.org/2000/svg"
   xmlns:sodipodi="http://sodipodi.sourceforge.net/DTD/sodipodi-0.dtd"
   xmlns:inkscape="http://www.inkscape.org/namespaces/inkscape"
   width="2500"
   height="2500"
   viewBox="23.274 22.154 55.114 55.137675"
   version="1.1"
   id="svg70"
   sodipodi:docname="steam.svg"
   inkscape:version="1.0.1 (3bc2e813f5, 2020-09-07)">
  <metadata
     id="metadata76">
    <rdf:RDF>
      <cc:Work
         rdf:about="">
        <dc:format>image/svg+xml</dc:format>
        <dc:type
           rdf:resource="http://purl.org/dc/dcmitype/StillImage" />
        <dc:title></dc:title>
      </cc:Work>
    </rdf:RDF>
  </metadata>
  <defs
     id="defs74" />
  <sodipodi:namedview
     pagecolor="#ffffff"
     bordercolor="#666666"
     borderopacity="1"
     objecttolerance="10"
     gridtolerance="10"
     guidetolerance="10"
     inkscape:pageopacity="0"
     inkscape:pageshadow="2"
     inkscape:window-width="1920"
     inkscape:window-height="1016"
     id="namedview72"
     showgrid="false"
     inkscape:zoom="0.26124924"
     inkscape:cx="1673.0438"
     inkscape:cy="1367.5241"
     inkscape:window-x="0"
     inkscape:window-y="0"
     inkscape:window-maximized="1"
     inkscape:current-layer="svg70" />
  <path
     fill="#333333"
     d="m 74.941,43.7272 a 4.014,4.014 0 0 1 -4.012,4.013 c -2.216,0 -3.988,-1.797 -3.988,-4.013 a 4.013,4.013 0 0 1 8.026,0 z m -4.037,-7.458 a 7.442,7.442 0 0 0 -7.458,7.409 l -4.652,6.671 c -0.196,-0.025 -0.394,-0.025 -0.566,-0.025 a 5.646,5.646 0 0 0 -2.855,0.788 l -21.07,-8.468 a 5.57,5.57 0 0 0 -5.44,-4.382 5.599,5.599 0 0 0 -5.587,5.588 5.6,5.6 0 0 0 5.587,5.588 5.646,5.646 0 0 0 2.855,-0.788 l 21.07,8.468 a 5.57,5.57 0 0 0 5.44,4.382 c 2.88,0 5.269,-2.215 5.538,-5.021 l 7.164,-5.243 a 7.453,7.453 0 0 0 7.458,-7.458 7.453,7.453 0 0 0 -7.458,-7.458 z m 0,2.461 a 5,5 0 0 1 4.997,4.997 5,5 0 0 1 -4.997,4.997 5,5 0 0 1 -4.996,-4.997 5,5 0 0 1 4.996,-4.997 z m -42.067,0.985 c 1.575,0 2.929,0.886 3.619,2.166 l -2.043,-0.812 c -1.649,-0.591 -3.471,0.221 -4.11,1.846 -0.666,1.625 0.097,3.471 1.697,4.184 l 1.723,0.689 a 3.616,3.616 0 0 1 -0.886,0.099 4.103,4.103 0 0 1 -4.111,-4.111 4.103,4.103 0 0 1 4.111,-4.111 z m 29.366,12.062 a 4.101,4.101 0 0 1 4.111,4.11 4.102,4.102 0 0 1 -4.111,4.11 4.055,4.055 0 0 1 -3.619,-2.19 c 0.665,0.271 1.354,0.542 2.02,0.812 a 3.302,3.302 0 0 0 4.258,-1.798 3.256,3.256 0 0 0 -1.821,-4.233 l -1.698,-0.688 c 0.295,-0.074 0.59,-0.1 0.886,-0.1 z"
     id="path68" />
</svg>
